<?xml version="1.0" encoding="utf-8"?>
<!-- Generator: Adobe Illustrator 22.0.0, SVG Export Plug-In . SVG Version: 6.00 Build 0)  -->
<svg version="1.1" xmlns="http://www.w3.org/2000/svg" xmlns:xlink="http://www.w3.org/1999/xlink" x="0px" y="0px"
	 viewBox="0 0 1133.9 1133.9" style="enable-background:new 0 0 1133.9 1133.9;" xml:space="preserve">
<style type="text/css">
	.st0{display:none;}
	.st1{fill:none;stroke:#F0F0F0;stroke-width:12;stroke-miterlimit:10;}
	.st2{fill:#FAEFC5;}
	.st3{fill:#E4E4EF;}
	.st4{fill:#FFC2D6;}
	.st5{fill:#F2F2F9;}
	.st6{fill:#5F5FFF;}
	.st7{fill:none;stroke:#5F5FFF;stroke-width:1.5;stroke-linecap:round;stroke-miterlimit:10;}
	.st8{fill:#F0CE72;}
	.st9{display:none;fill:#B7CCCE;}
	.st10{fill:#87B7CC;}
	.st11{fill:#E6F1F3;}
	.st12{fill:#B8C84B;}
	.st13{fill:#FFFFFF;}
	.st14{fill:#FFCC3E;}
	.st15{fill:#FFB5B4;}
	.st16{fill:#54585A;}
	.st17{fill:none;stroke:#434647;stroke-width:2;stroke-linecap:round;stroke-miterlimit:10;}
	.st18{fill:#2E2A33;}
	.st19{fill:#C9C3BC;}
	.st20{fill:#F28B8B;stroke:#DB7272;stroke-linecap:round;stroke-miterlimit:10;}
	.st21{fill:none;stroke:#FFFFFF;stroke-width:2;stroke-linecap:round;stroke-miterlimit:10;}
	.st22{fill:#F28B8B;}
	.st23{fill:#35012F;}
	.st24{fill:none;stroke:#F28B8B;stroke-width:2;stroke-linecap:round;stroke-miterlimit:10;}
	.st25{fill:#EDD5D1;}
	.st26{fill:#FFC933;}
	.st27{fill:#DBAD3A;}
	.st28{fill:#2E363A;}
	.st29{fill:#CEB0AE;}
	.st30{fill:#A7B59E;}
	.st31{fill:none;stroke:#1C2385;stroke-width:2;stroke-linecap:round;stroke-linejoin:round;stroke-miterlimit:10;}
	.st32{fill:none;stroke:#1C2385;stroke-miterlimit:10;}
	.st33{opacity:0.55;fill:#FAEFC5;enable-background:new    ;}
	.st34{fill:#C0DBE0;}
	.st35{fill:#DCE2E5;}
	.st36{fill:none;stroke:#C0DBE0;stroke-width:10;stroke-miterlimit:10;}
	.st37{fill:none;stroke:#DEEDCC;stroke-width:10;stroke-miterlimit:10;}
	.st38{fill:#E4E4EF;stroke:#E4E4EF;stroke-width:10;stroke-miterlimit:10;}
	.st39{fill:none;stroke:#FFFFFF;stroke-width:3;stroke-linecap:square;stroke-miterlimit:10;}
	.st40{fill:#F9B566;}
	.st41{fill:#8DAF77;}
	.st42{fill:#2B6148;}
	.st43{fill:#D9795A;}
	.st44{fill:#645646;}
	.st45{fill:#BF9E8D;}
	.st46{fill:#285E43;}
	.st47{fill:none;stroke:#977667;stroke-width:2;stroke-linecap:round;stroke-linejoin:round;stroke-miterlimit:10;}
	.st48{fill:#F1F2F7;}
	.st49{fill:#DCE5CF;}
	.st50{fill:#CBD17C;}
	.st51{fill:none;stroke:#FFFFFF;stroke-width:10;stroke-miterlimit:10;}
	.st52{fill:none;stroke:#FFFFFF;stroke-width:12;stroke-miterlimit:10;}
	.st53{fill:#B3B3B3;}
	.st54{fill:#A87D13;}
	.st55{opacity:0.3;fill:#F7F6ED;}
	.st56{opacity:0.3;fill:#F4EAD7;}
	.st57{fill:#C9A045;}
	.st58{fill:#141416;}
	.st59{fill:#3F3F44;}
	.st60{fill:#F9DEC5;}
	.st61{fill:#FFFFFE;}
	.st62{fill:#343438;}
	.st63{fill:#594C43;}
	.st64{fill:#E5DD48;}
	.st65{fill:#D1E2A3;}
	.st66{fill:#8DAF77;stroke:#748E6B;stroke-width:6;stroke-miterlimit:10;}
	.st67{fill:none;stroke:#F8F9F2;stroke-width:6;stroke-miterlimit:10;}
	.st68{fill:none;stroke:#FAEFC5;stroke-width:4;stroke-miterlimit:10;}
	.st69{fill:#E8EDC4;}
	.st70{fill:none;stroke:#F8F9F2;stroke-width:10;stroke-miterlimit:10;}
	.st71{fill:#E2DC6D;}
	.st72{fill:#F7F5BF;}
	.st73{fill:#D56154;}
	.st74{fill:#6CBC75;}
	.st75{fill:#B5D398;}
	.st76{fill:#ED9C8C;}
	.st77{fill:#DD7C73;}
</style>
<g id="参考线" class="st0">
</g>
<g id="_x31_">
	<ellipse class="st10" cx="593.6" cy="769.8" rx="423.9" ry="215.3"/>
	<rect x="972.5" y="708.3" class="st10" width="45.1" height="63.1"/>
	<rect x="169.7" y="718" class="st10" width="45.1" height="63.1"/>
	<ellipse class="st11" cx="593.6" cy="707.7" rx="423.9" ry="215.3"/>
</g>
<g id="_x32_-底座">
	<path class="st52" d="M193.2,628.4h293.9c0,0,42.3-3.5,42.3,13.9c0,17.4-41.7,13.8-41.7,13.8H315.6c0,0-37-3.2-37,12.2
		s35.6,14.2,35.6,14.2h347"/>
	<path class="st52" d="M1031,721.4H777.3c0,0-36.5-4.8-36.5,19.2c0,24,36,19.1,36,19.1h148.6c0,0,31.9-4.4,31.9,16.9
		c0,21.3-30.8,19.6-30.8,19.6H627c0,0-26.7-1.8-26.7,15.6s27.5,14.2,27.5,14.2h92.1c0,0,24.8-2.9,24.8,14.2s-24,13.8-24,13.8H408.8"
		/>
</g>
<g id="_x32_">
</g>
<g id="_x33_">
	<path class="st65" d="M819.8,553.1c0,0,35.4,139.1-117.6,178c-73.6,18.7-194.7-69.6-194.7-69.6s-84.1-62.5-110.5-77.3
		c-26.4-14.8-88.4-44.8-113.3-71.8c-20-21.7-40.1-48.7-44.8-84.6s0-48.5,0-48.5L819.8,553.1z"/>
	<path class="st66" d="M570,398.6c0,0,100.1,55.8,133.8,70.3c33.7,14.5,65.2,25,65.2,25c22.7,9.3,58.1,26.5,49.7,85.2
		c-0.6,4.2-2.3,8.5-4,13.1c-26.9,72.5-119.9,82.7-119.9,82.7s-50.8,9.5-131.2-45.5c-52.1-35.6-108.3-67.7-108.3-67.7l-143.3-87
		c0,0-47-20.8-66.1-51.3s-1.9-55.9-1.9-55.9s25.8-45.5,82.5-61.7c45.2-12.9,62.9-7.5,79.9-0.9c9.9,3.8,18.1,8.1,51.3,31.5
		S570,398.6,570,398.6z"/>
	<circle class="st67" cx="771.8" cy="599.5" r="9.2"/>
	<path class="st68" d="M367.9,348l22-12c0,0,6-3.5,14.1,0.6c8.1,4.1,378.2,205.3,378.2,205.3s4.8,4.1-0.5,22.1
		c-5.4,18-10.6,36.6-10.6,36.6"/>
	<g id="图层_7">
		
			<rect x="316.2" y="416.8" transform="matrix(-0.982 0.1888 -0.1888 -0.982 722.7877 784.294)" class="st12" width="15.7" height="19.6"/>
		
			<rect x="522.2" y="427.2" transform="matrix(-0.982 0.1888 -0.1888 -0.982 1133.0668 766.0645)" class="st12" width="15.7" height="19.6"/>
		<path class="st12" d="M407.1,373.9L322.7,429c0,0-9.3,7-1.5,13.3s120.4,73.8,120.4,73.8s4.1,2.8,10.7-2.1
			c6.6-4.9,87.4-68.7,87.4-68.7s-1.1-2.9-7.8-6.3c-6.7-3.4-112.8-63.4-112.8-63.4S413.5,369.7,407.1,373.9z"/>
		<path class="st69" d="M403.4,354.4l-84.4,55.1c0,0-9.3,7-1.5,13.3c7.8,6.3,120.4,73.8,120.4,73.8s4.1,2.8,10.7-2.1
			c6.6-4.9,87.4-68.7,87.4-68.7s-1.1-2.9-7.8-6.3c-6.7-3.4-112.8-63.4-112.8-63.4S409.8,350.2,403.4,354.4z"/>
	</g>
	<g id="图层_8">
		
			<ellipse transform="matrix(0.982 -0.1888 0.1888 0.982 -69.4586 63.3857)" class="st8" cx="297.9" cy="396.2" rx="24.6" ry="15.4"/>
		
			<rect x="271.2" y="373.3" transform="matrix(-0.982 0.1888 -0.1888 -0.982 658.8113 706.9266)" class="st8" width="49.1" height="23.1"/>
		
			<ellipse transform="matrix(0.982 -0.1888 0.1888 0.982 -65.2478 62.1522)" class="st2" cx="293.5" cy="373.5" rx="24.6" ry="15.4"/>
		
			<ellipse transform="matrix(0.982 -0.1888 0.1888 0.982 -61.2234 73.6828)" class="st8" cx="356.1" cy="358.1" rx="24.6" ry="15.4"/>
		
			<rect x="329.3" y="335.2" transform="matrix(-0.982 0.1888 -0.1888 -0.982 766.8875 620.4921)" class="st8" width="49.1" height="23.1"/>
		
			<ellipse transform="matrix(0.982 -0.1888 0.1888 0.982 -57.0126 72.4493)" class="st2" cx="351.7" cy="335.4" rx="24.6" ry="15.4"/>
		
			<ellipse transform="matrix(0.982 -0.1888 0.1888 0.982 -71.6696 119.1925)" class="st8" cx="589.7" cy="435.7" rx="15.4" ry="8.8"/>
		
			<rect x="573.1" y="422.7" transform="matrix(-0.982 0.1888 -0.1888 -0.982 1247.3348 739.6418)" class="st8" width="30.7" height="13.2"/>
		
			<ellipse transform="matrix(0.982 -0.1888 0.1888 0.982 -69.2707 118.4898)" class="st2" cx="587.2" cy="422.8" rx="15.4" ry="8.8"/>
		<ellipse transform="matrix(0.982 -0.1888 0.1888 0.982 -74.027 125.955)" class="st8" cx="624" cy="451.5" rx="15.4" ry="8.8"/>
		
			<rect x="607.4" y="438.4" transform="matrix(-0.982 0.1888 -0.1888 -0.982 1318.3129 764.3842)" class="st8" width="30.7" height="13.2"/>
		
			<ellipse transform="matrix(0.982 -0.1888 0.1888 0.982 -71.628 125.2523)" class="st2" cx="621.5" cy="438.5" rx="15.4" ry="8.8"/>
		
			<ellipse transform="matrix(0.982 -0.1888 0.1888 0.982 -76.9651 132.8877)" class="st8" cx="658.9" cy="470.3" rx="15.4" ry="8.8"/>
		
			<rect x="642.3" y="457.3" transform="matrix(-0.982 0.1888 -0.1888 -0.982 1391.0767 795.2226)" class="st8" width="30.7" height="13.2"/>
		
			<ellipse transform="matrix(0.982 -0.1888 0.1888 0.982 -74.5662 132.1849)" class="st2" cx="656.4" cy="457.4" rx="15.4" ry="8.8"/>
		<path class="st70" d="M524.2,448.1l35.3,23.9c0,0,13.9,11,4.3,22.2c-9.6,11.2-25.3,28.2-25.3,28.2s-15.3,13.2-1.2,25.2
			s150.4,84.4,150.4,84.4s9,3.5,21.8-2.2c13-5.9,27.1-14.2,27.1-14.2"/>
	</g>
	<circle class="st67" cx="735.3" cy="617.1" r="12.4"/>
	<path class="st71" d="M603.2,527.4l95.1,80.4c0,0,2.4,3,0,4.3c-2.6,1.4-6.8,3.3-9.2,4.4c-1.2,0.5-1.9,0.5-1.9,0.5s-0.7,0-3.2-2.1
		c-2.5-2.1-94.8-82.5-94.8-82.5s-1.4-1,1.5-3.4c1.3-1.1,7-2.5,7-2.5C596.3,526.8,600.3,525.2,603.2,527.4z"/>
	<polygon class="st71" points="596.4,471.9 719.6,526.9 730.7,587.9 608.2,533.3 	"/>
	<path class="st72" d="M609.8,465.1l108.5,61c0,0,2.9,2.5,0.8,4.2c-2.3,1.8-6,4.5-8.2,6c-1,0.7-1.8,0.8-1.8,0.8s-0.7,0.1-3.5-1.5
		c-2.9-1.6-108.7-63.1-108.7-63.1s-1.6-0.7,0.8-3.6c1.1-1.3,6.4-3.8,6.4-3.8C602.9,465.8,606.6,463.4,609.8,465.1z"/>
	<path class="st71" d="M593.9,549.3l108.5,61c0,0,2.9,2.5,0.8,4.2c-2.3,1.8-6,4.5-8.2,6c-1,0.7-1.8,0.8-1.8,0.8s-0.7,0.1-3.5-1.5
		s-108.7-63.1-108.7-63.1s-1.6-0.7,0.8-3.6c1.1-1.3,6.4-3.8,6.4-3.8C587,550,590.6,547.6,593.9,549.3z"/>
	<polygon class="st71" points="568.7,494.8 691.9,549.9 703,610.9 580.5,556.3 	"/>
	<path class="st72" d="M582.1,488.1l108.5,61c0,0,2.9,2.5,0.8,4.2c-2.3,1.8-6,4.5-8.2,6c-1,0.7-1.8,0.8-1.8,0.8s-0.7,0.1-3.5-1.5
		c-2.9-1.6-108.7-63.1-108.7-63.1s-1.6-0.7,0.8-3.6c1.1-1.3,6.4-3.8,6.4-3.8C575.2,488.8,578.9,486.4,582.1,488.1z"/>
	<circle class="st67" cx="716.3" cy="648.6" r="9.2"/>
	<path class="st68" d="M483.8,481.7l31.7,21.2c0,0,6.8,5.9-0.5,14.8c-3.1,3.8-15.2,16.8-15.2,16.8s-12.6,12.1-2.4,18.1
		c13.3,7.8,183.5,102.8,183.5,102.8s10.4,4.7,16.6,2s18.8-9.3,18.8-9.3"/>
	<g id="图层_9">
		<path class="st59" d="M787,808.1c0,0-25.8-3.8-30.2-10.5c-2-3,2.5-4.1,8-4.3c10.7,5.3,19.5,6.5,24.9,6.6
			C789.6,802.4,787,808.1,787,808.1z"/>
		<path class="st60" d="M764.7,793.3c6.7-0.3,15,0.5,15,0.5s6.8-24,7.3-24.8l12.9,4.2c0,0-10.9,24-10.4,26.2c0,0.1,0,0.3,0,0.5
			C784.2,799.8,775.5,798.6,764.7,793.3z"/>
		<path class="st59" d="M880.2,798.8c0,0-23.8,10.5-31.2,7.2c-3.3-1.5-0.1-4.7,4.4-7.9c11.9-1.2,20-4.9,24.6-7.7
			C879.4,792.5,880.2,798.8,880.2,798.8z"/>
		<path class="st60" d="M853.5,798.1c5.5-3.9,13-7.6,13-7.6s-7-23.9-7.1-24.9l13.2-3.4c0,0,3.6,26.1,5.1,27.7
			c0.1,0.1,0.2,0.2,0.3,0.4C873.5,793.2,865.4,796.9,853.5,798.1z"/>
		<path class="st10" d="M840.8,681l16.1,92.4h19.8c0,0-10.9-84.8-9.7-90c1.2-5.2,6.1-55.1,6.1-55.1l-29.5,18.4L840.8,681z"/>
		<path class="st34" d="M779.8,777.5c1.6-2.8,40-151,40-151l44-7.7l9.3,9.5c0,0-12.7,35.7-25.3,56.3c-12.6,20.6-47.7,96.5-47.7,96.5
			L779.8,777.5z"/>
		<path class="st73" d="M856.1,542.4c0,0-25.4-1.4-40.4-21.8c-14.9-20.4-23.6-40.2-23.6-40.2L781,503.2l5.9,28.9l31.7,34.1l33.1-4.8
			L856.1,542.4z"/>
		<polygon class="st74" points="813.7,543.3 748.8,543.3 728.1,524.8 728.1,437.1 813.7,437.1 		"/>
		<polygon class="st75" points="813.7,543.3 728.1,466 813.7,466 		"/>
		<rect x="735.4" y="423.7" class="st8" width="8.6" height="34"/>
		<rect x="748.1" y="423.7" class="st8" width="8.6" height="34"/>
		<rect x="760.8" y="423.7" class="st8" width="8.6" height="34"/>
		<rect x="773.5" y="423.7" class="st8" width="8.6" height="34"/>
		<rect x="786.2" y="423.7" class="st8" width="8.6" height="34"/>
		<rect x="798.9" y="423.7" class="st8" width="8.6" height="34"/>
		<path class="st8" d="M762,480.6c0,4.3-3.5,7.7-7.7,7.7c-4.3,0-7.7-3.5-7.7-7.7c0-4.3,3.5-7.7,7.7-7.7
			C758.5,472.9,762,476.4,762,480.6z"/>
		<path class="st8" d="M780.9,479.6c0,4.3-3.5,7.7-7.7,7.7c-4.3,0-7.7-3.5-7.7-7.7c0-4.3,3.5-7.7,7.7-7.7
			C777.4,471.9,780.9,475.3,780.9,479.6z"/>
		<path class="st8" d="M800.5,491.3c0,4.3-3.5,7.7-7.7,7.7c-4.3,0-7.7-3.5-7.7-7.7c0-4.3,3.5-7.7,7.7-7.7
			C797,483.6,800.5,487,800.5,491.3z"/>
		<rect x="751.9" y="480.6" class="st8" width="4.8" height="50.7"/>
		<rect x="770.8" y="480.6" class="st8" width="4.8" height="50.7"/>
		<rect x="790.4" y="487.8" class="st8" width="4.8" height="43.8"/>
		<path class="st76" d="M876.7,583.3l-3.6,45c-13.9,9.1-53.3-1.8-53.3-1.8l-0.3-10.1l-0.9-27.6c-45.4,1.4-51.3-10.1-51.3-10.1
			l-28.9-32.1l14.7-16.7c0,0,13.3,11.7,26.4,21.8c13.1,10.1,15.7,7.9,40.4,0c11.6-3.7,22.7-5.1,31.3-5.4v5.4h17.3L876.7,583.3z"/>
		<path class="st76" d="M868.5,551.6h-17.3v-5.4c9.6-0.4,15.9,0.3,15.9,0.3L868.5,551.6z"/>
		<path class="st60" d="M875.7,520.8l-2.8,30.9h-4.3l-1.3-5.1c0,0-6.3-0.8-15.9-0.3v-9.9c-1.2-5.3-31.9-13.3-0.9-41.7l16.5,9
			L875.7,520.8z"/>
		<path class="st10" d="M860.1,492.5c0,0,23.2-10.7,28.7,22.4c0,0,9.3,3.2,9.3,13.3c0,0,15.5,5.9,7.9,23.6c0,0,20.4,12.5,2.1,32.5
			c0,0-5.6,32.1-31.8,10.3C850,572.8,864,541.8,864,541.8s-5-8.5,1.2-12.9c6.2-4.4,1.8-12.7-6.1-12.7c-7.9,0,4.2-7.3-6.5-13.3
			C842,496.7,850.7,493.1,860.1,492.5z"/>
		<path class="st77" d="M838.3,585.3c0,0-11.5,18.3-18.9,31.1l-0.9-27.6C818.6,588.8,835.1,585.3,838.3,585.3z"/>
		<path class="st60" d="M749.2,535.6c-0.4-1.5-5.8-12.7-5.8-12.7s-1.2-16.4-4.2-16.4c-2.9,0-2.5,4.6-2.5,10.9s-10.6,1.3-10.6,1.3
			s-2.9,9.7,7.5,14.2c10.4,4.5,12.5,6.9,12.5,6.9L749.2,535.6z"/>
	</g>
</g>
</svg>
