<?xml version="1.0" encoding="utf-8"?>
<!-- Generator: Adobe Illustrator 22.0.0, SVG Export Plug-In . SVG Version: 6.00 Build 0)  -->
<svg version="1.1" xmlns="http://www.w3.org/2000/svg" xmlns:xlink="http://www.w3.org/1999/xlink" x="0px" y="0px"
	 viewBox="0 0 1133.9 1133.9" style="enable-background:new 0 0 1133.9 1133.9;" xml:space="preserve">
<style type="text/css">
	.st0{display:none;}
	.st1{fill:none;stroke:#F0F0F0;stroke-width:12;stroke-miterlimit:10;}
	.st2{fill:#FAEFC5;}
	.st3{fill:#E4E4EF;}
	.st4{fill:#FFC2D6;}
	.st5{fill:#F2F2F9;}
	.st6{fill:#5F5FFF;}
	.st7{fill:none;stroke:#5F5FFF;stroke-width:1.5;stroke-linecap:round;stroke-miterlimit:10;}
	.st8{fill:#F0CE72;}
	.st9{display:none;fill:#B7CCCE;}
	.st10{fill:#87B7CC;}
	.st11{fill:#E6F1F3;}
	.st12{fill:#B8C84B;}
	.st13{fill:#FFFFFF;}
	.st14{fill:#FFCC3E;}
	.st15{fill:#FFB5B4;}
	.st16{fill:#54585A;}
	.st17{fill:none;stroke:#434647;stroke-width:2;stroke-linecap:round;stroke-miterlimit:10;}
	.st18{fill:#2E2A33;}
	.st19{fill:#C9C3BC;}
	.st20{fill:#F28B8B;stroke:#DB7272;stroke-linecap:round;stroke-miterlimit:10;}
	.st21{fill:none;stroke:#FFFFFF;stroke-width:2;stroke-linecap:round;stroke-miterlimit:10;}
	.st22{fill:#F28B8B;}
	.st23{fill:#35012F;}
	.st24{fill:none;stroke:#F28B8B;stroke-width:2;stroke-linecap:round;stroke-miterlimit:10;}
	.st25{fill:#EDD5D1;}
	.st26{fill:#FFC933;}
	.st27{fill:#DBAD3A;}
	.st28{fill:#2E363A;}
	.st29{fill:#CEB0AE;}
	.st30{fill:#A7B59E;}
	.st31{fill:none;stroke:#1C2385;stroke-width:2;stroke-linecap:round;stroke-linejoin:round;stroke-miterlimit:10;}
	.st32{fill:none;stroke:#1C2385;stroke-miterlimit:10;}
	.st33{opacity:0.55;fill:#FAEFC5;enable-background:new    ;}
	.st34{fill:#C0DBE0;}
	.st35{fill:#DCE2E5;}
	.st36{fill:none;stroke:#C0DBE0;stroke-width:10;stroke-miterlimit:10;}
	.st37{fill:none;stroke:#DEEDCC;stroke-width:10;stroke-miterlimit:10;}
	.st38{fill:#E4E4EF;stroke:#E4E4EF;stroke-width:10;stroke-miterlimit:10;}
	.st39{fill:none;stroke:#FFFFFF;stroke-width:3;stroke-linecap:square;stroke-miterlimit:10;}
	.st40{fill:#F9B566;}
	.st41{fill:#8DAF77;}
	.st42{fill:#2B6148;}
	.st43{fill:#D9795A;}
	.st44{fill:#645646;}
	.st45{fill:#BF9E8D;}
	.st46{fill:#285E43;}
	.st47{fill:none;stroke:#977667;stroke-width:2;stroke-linecap:round;stroke-linejoin:round;stroke-miterlimit:10;}
	.st48{fill:#F1F2F7;}
	.st49{fill:#DCE5CF;}
	.st50{fill:#CBD17C;}
	.st51{fill:none;stroke:#FFFFFF;stroke-width:10;stroke-miterlimit:10;}
	.st52{fill:none;stroke:#FFFFFF;stroke-width:12;stroke-miterlimit:10;}
	.st53{fill:#B3B3B3;}
	.st54{fill:#A87D13;}
	.st55{opacity:0.3;fill:#F7F6ED;}
	.st56{opacity:0.3;fill:#F4EAD7;}
	.st57{fill:#C9A045;}
	.st58{fill:#141416;}
	.st59{fill:#3F3F44;}
	.st60{fill:#F9DEC5;}
	.st61{fill:#FFFFFE;}
	.st62{fill:#343438;}
	.st63{fill:#594C43;}
	.st64{fill:#E5DD48;}
	.st65{fill:#D1E2A3;}
	.st66{fill:#8DAF77;stroke:#748E6B;stroke-width:6;stroke-miterlimit:10;}
	.st67{fill:none;stroke:#F8F9F2;stroke-width:6;stroke-miterlimit:10;}
	.st68{fill:none;stroke:#FAEFC5;stroke-width:4;stroke-miterlimit:10;}
	.st69{fill:#E8EDC4;}
	.st70{fill:none;stroke:#F8F9F2;stroke-width:10;stroke-miterlimit:10;}
	.st71{fill:#E2DC6D;}
	.st72{fill:#F7F5BF;}
	.st73{fill:#D56154;}
	.st74{fill:#6CBC75;}
	.st75{fill:#B5D398;}
	.st76{fill:#ED9C8C;}
	.st77{fill:#DD7C73;}
</style>
<g id="参考线" class="st0">
</g>
<g id="_x31_">
	<ellipse class="st8" cx="585.9" cy="753.8" rx="413.7" ry="210.2"/>
	<rect x="955.6" y="693.8" class="st8" width="44" height="61.6"/>
	<rect x="172.1" y="703.2" class="st8" width="44" height="61.6"/>
	<ellipse class="st2" cx="585.9" cy="693.2" rx="413.7" ry="210.2"/>
	<path class="st9" d="M608.4,867.6c1.1,8.4,1.7,17.1,1.7,25.8c0,115.3-102,208.7-227.8,208.7s-227.8-93.5-227.8-208.7
		c0-5.7,0.2-11.3,0.7-16.9"/>
</g>
<g id="_x32_-底座">
	<path class="st52" d="M160.7,706.7h204c0,0,29.4-3.9,29.4,15.4c0,19.3-28.9,15.4-28.9,15.4H245.7c0,0-25.7-3.5-25.7,13.6
		s24.7,15.8,24.7,15.8h240.8c0,0,21.5-1.5,21.5,12.6S485,790.9,485,790.9h-74.1c0,0-19.9-2.3-19.9,11.4c0,13.7,19.3,11.1,19.3,11.1
		h250.8"/>
	<path class="st52" d="M197.7,596.3h286.8c0,0,41.3-3.4,41.3,13.6c0,17-40.7,13.5-40.7,13.5h-168c0,0-36.1-3.1-36.1,11.9
		s34.8,13.9,34.8,13.9h338.7"/>
	<path class="st52" d="M566.1,650.7h279.5c0,0,40.3-3.4,40.3,13.5c0,16.8-39.6,13.4-39.6,13.4H682.5c0,0-35.2-3.1-35.2,11.9
		s33.9,13.8,33.9,13.8h330"/>
</g>
<g id="_x32_">
	<path class="st13" d="M412.1,443.8c0.5-0.6,0.8-1.2,1-1.8c-9-3.7-17.6-8.4-25.6-14.1c-0.7,0.5-1.4,1-2,1.7l-49.1,61.8
		c-2.3,2.9-1.7,6.7,1.5,8.4l15.1,8.1c3.2,1.7,7.6,0.7,10-2.2L412.1,443.8z"/>
	<path class="st53" d="M414.6,444.4c0.5-0.6,0.8-1.3,1.1-2c-4-1.7-8-3.5-11.8-5.5l-54,68.6l5.8,3.2c3.2,1.8,7.7,0.8,10-2.2
		L414.6,444.4z"/>
	<path class="st54" d="M564.7,220.9c-64.5-35.1-154.4-15.8-200.8,43.2c-46.4,59-31.8,135.3,32.6,170.4
		c64.5,35.1,154.4,15.8,200.8-43.2C643.8,332.4,629.2,256.1,564.7,220.9z M412.6,414.1c-52.1-28.4-63.9-90.1-26.4-137.8
		c37.6-47.7,110.2-63.3,162.4-35c52.1,28.4,63.9,90.1,26.4,137.8C537.4,426.9,464.7,442.5,412.6,414.1z"/>
	<path class="st55" d="M568.1,370.7c-36.5,46.4-107.2,61.6-157.9,34c-50.7-27.6-62.2-87.6-25.7-134c36.5-46.4,107.2-61.6,157.9-34
		C593.1,264.3,604.6,324.3,568.1,370.7z"/>
	<path class="st56" d="M437.1,317.2c27.9-35.4,81.2-49.2,122.3-33.4c-6.4-11.7-16.4-21.9-29.9-29.3c-40.9-22.3-98-10-127.5,27.5
		c-29.5,37.5-20.2,85.9,20.7,108.2c0.4,0.2,0.9,0.4,1.3,0.7C415.3,367.5,419.1,340.1,437.1,317.2z"/>
	<path class="st13" d="M550.1,226.9c-56.6-30.8-135.6-13.8-176.4,38c-40.8,51.8-28,118.8,28.7,149.6c56.6,30.8,135.6,13.8,176.4-38
		C619.6,324.7,606.8,257.7,550.1,226.9z M416.6,396.5c-45.8-24.9-56.2-79.1-23.2-121s96.8-55.6,142.6-30.7
		c45.8,24.9,56.2,79.1,23.2,121C526.2,407.7,462.3,421.5,416.6,396.5z"/>
	<path class="st8" d="M285.3,634.7c-4.9,6.3-14.2,8.5-20.7,5l-31-16.7c-6.5-3.5-7.8-11.5-2.9-17.8L333.8,473
		c4.9-6.3,14.2-8.5,20.7-5l31,16.7c6.5,3.5,7.8,11.5,2.9,17.8L285.3,634.7z"/>
	<path class="st57" d="M386.9,486.7l-6.1-3.1L262.3,640.2l6.1,3.1c5.4,2.8,13.6-0.1,18.4-6.5l101.1-133.7
		C392.7,496.8,392.2,489.4,386.9,486.7z"/>
	<path class="st26" d="M560.4,213.9c-64.5-35.1-154.4-15.8-200.8,43.2c-46.4,59-31.8,135.3,32.6,170.4
		c64.5,35.1,154.4,15.8,200.8-43.2C639.5,325.3,624.8,249,560.4,213.9z M408.3,407.1c-52.1-28.4-63.9-90.1-26.4-137.8
		c37.6-47.7,110.2-63.4,162.4-35c52.1,28.4,63.9,90.1,26.4,137.8C533.1,419.8,460.4,435.5,408.3,407.1z"/>
	<path class="st58" d="M292.4,762.3l-1.9,6.2c0,0,17.7-0.1,17.7,7.8c0,7.9-13.8,5.7-27.8,5.7c-14,0-7.9-13-6.6-20.9
		C275.1,753.2,292.4,762.3,292.4,762.3z"/>
	<path class="st58" d="M329.1,773.9v4.9c0,0,18.5,0,18.5,7.9c0,7.9-14.6,6.2-28.6,6.2c-14,0-8.6-13.6-7.3-21.5
		C313,763.4,329.1,773.9,329.1,773.9z"/>
	<path class="st59" d="M335.8,607.1c0,0,3.2,161.7-1.3,170.2l-18.5,0.6l-10.2-1.8l-1.9-79c0,0-1.3,49.2-8.9,69.3
		c0,0-20.4,0-24.2-6.1c0,0,10.2-60.2,8.3-80.8c-1.9-20.7-5.7-68.1-5.7-68.1L335.8,607.1z"/>
	<path class="st60" d="M307.1,429.7c0,0,8.1,8.6,7.9,15c0,0,0,4.9,1.4,6.3c1.4,1.4,2.4,3.7,0.9,4.8c-1.5,1.1-0.3,5.5-0.3,5.5
		s0.1,6.4-6.2,7.1c-6.3,0.7-8,7.6-6.5,10.2c1.6,2.6-20.9,5-20.9,5s2.5-8.2-0.6-13.1c-3.1-4.9-19.8-23.2-9.5-33.8
		C283.6,426.2,294.5,420.7,307.1,429.7z"/>
	<polygon class="st61" points="304.4,477.7 282.5,470.4 278.3,481.6 306.3,481.6 	"/>
	<path class="st13" d="M278.1,481.1c0,0,17.2,1.2,26.1-0.6c8.9-1.8,51.8,42.6,51.8,42.6l15.8-29l11.5,6.4l-15.9,42.4
		c0,0-1.9,7.3-8,4.6c-6-2.7-26.8-15.2-29.4-13.1c-2.5,2.1,7.6,76.3,7.6,76.3s-1,4.3-17.8,5.5c-16.9,1.2-43.3,4.3-45.8-4.6
		c-2.5-8.8-3.2-43.5-6-56.8C265.1,541.3,256.2,504.5,278.1,481.1z"/>
	<path class="st13" d="M278.1,481.1c0,0,17.2,1.2,26.1-0.6c2.8-0.6,9.1,3.5,16.3,9.4c0.9,15.7,4.1,30.8,9.2,45.2
		c-1.4,8.1,7.9,75.5,7.9,75.5s-1,4.3-17.8,5.5c-16.9,1.2-43.3,4.3-45.8-4.6c-2.5-8.8-3.2-43.5-6-56.8
		C265.1,541.3,256.2,504.5,278.1,481.1z"/>
	<polygon class="st62" points="301.4,636 305.3,725.7 295.1,766.4 286.2,766.4 297,706.2 	"/>
	<path class="st63" d="M280.6,423.8c19.6-7.5,26.1-1.7,33.2,7.7l-0.2,0c0.9,1.2,0.1,1.7,0.8,3.3c0,0,1.9,3.8-2,4.8
		c-3.9,1-8.5,0.3-9.9,4.7c-1.4,4.3-0.9,10.3-0.5,11.4c0.4,1.2-2-5.8-6.1-4.7c-4.1,1.1-5.2,4.4-3,7.1c2.3,2.7,6.4,5.3,7,6.4
		c0.6,1.1-5.9,9.6-9.8,10.5c-4,0.8-7.7,1.6-9.8-5.3c-2.1-6.9-7.5-12.9-10.5-14.6C266.7,453.5,261,431.4,280.6,423.8z"/>
	<path class="st60" d="M368.2,480.4c0,0-0.5-1.2,1.4-1.5c1.9-0.3,1.8,3.6,3.7,4c1.8,0.4,2.3-0.3,2.3-2.9
		c-0.3-16.2,3.9-14.4,3.9-14.4s2.1-1.5,6.5,13.2c2,6.5-2.2,15.9-2.2,15.9l-3.2,10.6l-9.8-5.2l3-8.7
		C373.7,491.4,369.3,486.3,368.2,480.4z"/>
	<polygon class="st8" points="814.2,479.8 783,458.2 747.5,471.7 758.4,435.3 734.6,405.7 772.6,404.8 793.4,373.1 805.9,408.9 
		842.6,418.9 812.4,441.9 	"/>
	<polygon class="st64" points="735.5,386.3 706.4,377 683.7,397.2 682,364.9 656.4,347.2 684.4,336.6 691.4,305.4 710.3,331.1 
		740.2,329.6 723.9,356.1 	"/>
</g>
<g id="_x33_">
	<g id="图层_7">
	</g>
	<g id="图层_8">
	</g>
	<g id="图层_9">
	</g>
</g>
</svg>
