<?xml version="1.0" encoding="utf-8"?>
<!-- Generator: Adobe Illustrator 22.0.0, SVG Export Plug-In . SVG Version: 6.00 Build 0)  -->
<svg version="1.1" xmlns="http://www.w3.org/2000/svg" xmlns:xlink="http://www.w3.org/1999/xlink" x="0px" y="0px"
	 viewBox="0 0 1133.9 1133.9" style="enable-background:new 0 0 1133.9 1133.9;" xml:space="preserve">
<style type="text/css">
	.st0{fill:#F1F2F7;}
	.st1{fill:none;stroke:#F0F0F0;stroke-width:12;stroke-miterlimit:10;}
	.st2{fill:none;stroke:#FFFFFF;stroke-width:12;stroke-miterlimit:10;}
	.st3{fill:#B8C84B;}
	.st4{fill:#D7DD85;}
	.st5{display:none;}
	.st6{fill:#87B7CC;}
	.st7{fill:#E6F1F3;}
	.st8{fill:#D1E2A3;}
	.st9{fill:#8DAF77;stroke:#748E6B;stroke-width:6;stroke-miterlimit:10;}
	.st10{fill:none;stroke:#FAEFC5;stroke-width:4;stroke-miterlimit:10;}
	.st11{fill:none;stroke:#F8F9F2;stroke-width:6;stroke-miterlimit:10;}
	.st12{fill:#E8EDC4;}
	.st13{fill:#F0CE72;}
	.st14{fill:#FAEFC5;}
	.st15{fill:none;stroke:#F8F9F2;stroke-width:10;stroke-miterlimit:10;}
	.st16{fill:#E2DC6D;}
	.st17{fill:#F7F5BF;}
	.st18{fill:#3F3F44;}
	.st19{fill:#F9DEC5;}
	.st20{fill:#C0DBE0;}
	.st21{fill:#D56154;}
	.st22{fill:#6CBC75;}
	.st23{fill:#B5D398;}
	.st24{fill:#ED9C8C;}
	.st25{fill:#DD7C73;}
	.st26{display:inline;stroke:#A7B59E;stroke-width:2;stroke-miterlimit:10;}
	.st27{display:inline;fill:none;stroke:#A7B59E;stroke-width:2;stroke-miterlimit:10;}
</style>
<g id="图层_2">
	<path id="Path_163_" class="st0" d="M274.6,265.8c5.3-49.5,38.7-97.8,80.3-115.3c44.5-18.7,68.5,10.3,133.6,18.1
		c133.9,16.1,216.2-84.1,253.6-47.6c28.8,28.1-20.5,87.1,9.9,136.2c40.1,64.6,155.8,11.4,214.8,76.2
		c44.3,48.6,55.2,139.3,22.6,173.4c-40.3,42-113.3-37-223.8-7.6c-91.9,24.4-87.3,91.3-188.6,133.4c-112,46.5-256.1,22.3-282.5-41.9
		c-18.5-45.2,36.6-73,29.8-160C318,349.9,267.6,333,274.6,265.8z"/>
	<path class="st1" d="M999.8,400.8"/>
	<path class="st1" d="M550.7,400.8"/>
	<path class="st2" d="M414,305h241.6c0,0,34.8-5.4,34.8,21.5c0,26.9-34.3,21.4-34.3,21.4H514.6c0,0-30.4-4.9-30.4,18.9
		c0,23.8,29.3,22,29.3,22h285.4c0,0,25.5-2,25.5,17.5c0,19.6-26.2,15.9-26.2,15.9h-87.7c0,0-23.6-3.3-23.6,15.9
		c0,19.2,22.8,15.5,22.8,15.5h297.1"/>
	<polygon class="st3" points="241.6,306.3 220.1,295.4 198.8,307 202.5,283.1 184.9,266.5 208.8,262.6 219.1,240.7 230.2,262.2 
		254.2,265.3 237.2,282.5 	"/>
	<polygon class="st4" points="186.7,357.7 178.2,344.3 162.2,343.7 172.4,331.4 168,316.1 182.8,322 196,313.1 195.1,329 
		207.6,338.8 192.2,342.8 	"/>
</g>
<g id="图层_1">
	<g id="参考线" class="st5">
	</g>
	<g id="_x31_">
		<ellipse class="st6" cx="593.6" cy="769.8" rx="423.9" ry="215.3"/>
		<rect x="972.5" y="708.3" class="st6" width="45.1" height="63.1"/>
		<rect x="169.7" y="718" class="st6" width="45.1" height="63.1"/>
		<ellipse class="st7" cx="593.6" cy="707.7" rx="423.9" ry="215.3"/>
	</g>
	<g id="_x32_-底座">
		<path class="st2" d="M193.2,628.4h293.9c0,0,42.3-3.5,42.3,13.9s-41.7,13.8-41.7,13.8H315.6c0,0-37-3.2-37,12.2
			s35.6,14.2,35.6,14.2h347"/>
		<path class="st2" d="M1031,721.4H777.3c0,0-36.5-4.8-36.5,19.2s36,19.1,36,19.1h148.6c0,0,31.9-4.4,31.9,16.9
			c0,21.3-30.8,19.6-30.8,19.6H627c0,0-26.7-1.8-26.7,15.6s27.5,14.2,27.5,14.2h92.1c0,0,24.8-2.9,24.8,14.2s-24,13.8-24,13.8H408.8
			"/>
	</g>
	<g id="_x32_">
	</g>
	<g id="_x33_">
		<path class="st8" d="M819.8,553.1c0,0,35.4,139.1-117.6,178c-73.6,18.7-194.7-69.6-194.7-69.6S423.4,599,397,584.2
			s-88.4-44.8-113.3-71.8c-20-21.7-40.1-48.7-44.8-84.6s0-48.5,0-48.5L819.8,553.1z"/>
		<path class="st9" d="M570,398.6c0,0,100.1,55.8,133.8,70.3c33.7,14.5,65.2,25,65.2,25c22.7,9.3,58.1,26.5,49.7,85.2
			c-0.6,4.2-2.3,8.5-4,13.1c-26.9,72.5-119.9,82.7-119.9,82.7s-50.8,9.5-131.2-45.5c-52.1-35.6-108.3-67.7-108.3-67.7l-143.3-87
			c0,0-47-20.8-66.1-51.3s-1.9-55.9-1.9-55.9s25.8-45.5,82.5-61.7c45.2-12.9,62.9-7.5,79.9-0.9c9.9,3.8,18.1,8.1,51.3,31.5
			S570,398.6,570,398.6z"/>
		<line class="st10" x1="336.3" y1="366.2" x2="318.1" y2="377.9"/>
		<circle class="st11" cx="771.8" cy="599.5" r="9.2"/>
		<path class="st10" d="M367.9,348l22-12c0,0,6-3.5,14.1,0.6s378.2,205.3,378.2,205.3s4.8,4.1-0.5,22.1c-5.4,18-10.6,36.6-10.6,36.6
			"/>
		<g id="图层_7">
			
				<rect x="316.2" y="416.8" transform="matrix(0.982 -0.1888 0.1888 0.982 -74.7069 68.8491)" class="st3" width="15.7" height="19.6"/>
			
				<rect x="522.2" y="427.2" transform="matrix(0.982 -0.1888 0.1888 0.982 -72.9746 107.9349)" class="st3" width="15.7" height="19.6"/>
			<path class="st3" d="M407.1,373.9L322.7,429c0,0-9.3,7-1.5,13.3s120.4,73.8,120.4,73.8s4.1,2.8,10.7-2.1
				c6.6-4.9,87.4-68.7,87.4-68.7s-1.1-2.9-7.8-6.3s-112.8-63.4-112.8-63.4S413.5,369.7,407.1,373.9z"/>
			<path class="st12" d="M403.4,354.4L319,409.5c0,0-9.3,7-1.5,13.3s120.4,73.8,120.4,73.8s4.1,2.8,10.7-2.1s87.4-68.7,87.4-68.7
				s-1.1-2.9-7.8-6.3s-112.8-63.4-112.8-63.4S409.8,350.2,403.4,354.4z"/>
		</g>
		<g id="图层_8">
			
				<ellipse transform="matrix(0.982 -0.1888 0.1888 0.982 -69.4483 63.3668)" class="st13" cx="297.9" cy="396.2" rx="24.6" ry="15.4"/>
			
				<rect x="271.2" y="373.3" transform="matrix(0.982 -0.1888 0.1888 0.982 -67.3406 62.7551)" class="st13" width="49.1" height="23.1"/>
			
				<ellipse transform="matrix(0.982 -0.1888 0.1888 0.982 -65.2426 62.1287)" class="st14" cx="293.5" cy="373.5" rx="24.6" ry="15.4"/>
			
				<ellipse transform="matrix(0.982 -0.1888 0.1888 0.982 -61.2073 73.6687)" class="st13" cx="356.1" cy="358.1" rx="24.6" ry="15.4"/>
			
				<rect x="329.4" y="335.2" transform="matrix(0.982 -0.1888 0.1888 0.982 -59.1094 73.062)" class="st13" width="49.1" height="23.1"/>
			
				<ellipse transform="matrix(0.982 -0.1888 0.1888 0.982 -57.0016 72.4306)" class="st14" cx="351.7" cy="335.4" rx="24.6" ry="15.4"/>
			
				<ellipse transform="matrix(0.982 -0.1888 0.1888 0.982 -71.6588 119.1689)" class="st13" cx="589.7" cy="435.7" rx="15.4" ry="8.8"/>
			
				<rect x="573.1" y="422.6" transform="matrix(0.982 -0.1888 0.1888 0.982 -70.4454 118.815)" class="st13" width="30.7" height="13.2"/>
			
				<ellipse transform="matrix(0.982 -0.1888 0.1888 0.982 -69.2684 118.4664)" class="st14" cx="587.2" cy="422.8" rx="15.4" ry="8.8"/>
			
				<ellipse transform="matrix(0.982 -0.1888 0.1888 0.982 -74.0253 125.9305)" class="st13" cx="624" cy="451.5" rx="15.4" ry="8.8"/>
			
				<rect x="607.4" y="438.4" transform="matrix(0.982 -0.1888 0.1888 0.982 -72.8112 125.581)" class="st13" width="30.7" height="13.2"/>
			
				<ellipse transform="matrix(0.982 -0.1888 0.1888 0.982 -71.6167 125.2228)" class="st14" cx="621.5" cy="438.5" rx="15.4" ry="8.8"/>
			
				<ellipse transform="matrix(0.982 -0.1888 0.1888 0.982 -76.9484 132.8548)" class="st13" cx="658.9" cy="470.3" rx="15.4" ry="8.8"/>
			
				<rect x="642.3" y="457.2" transform="matrix(0.982 -0.1888 0.1888 0.982 -75.7454 132.514)" class="st13" width="30.7" height="13.2"/>
			
				<ellipse transform="matrix(0.982 -0.1888 0.1888 0.982 -74.5579 132.1524)" class="st14" cx="656.4" cy="457.4" rx="15.4" ry="8.8"/>
			<path class="st15" d="M524.2,448.1l35.3,23.9c0,0,13.9,11,4.3,22.2c-9.6,11.2-25.3,28.2-25.3,28.2s-15.3,13.2-1.2,25.2
				S687.7,632,687.7,632s9,3.5,21.8-2.2c13-5.9,27.1-14.2,27.1-14.2"/>
		</g>
		<circle class="st11" cx="735.3" cy="617.1" r="12.4"/>
		<path class="st16" d="M603.2,527.4l95.1,80.4c0,0,2.4,3,0,4.3c-2.6,1.4-6.8,3.3-9.2,4.4c-1.2,0.5-1.9,0.5-1.9,0.5s-0.7,0-3.2-2.1
			s-94.8-82.5-94.8-82.5s-1.4-1,1.5-3.4c1.3-1.1,7-2.5,7-2.5C596.3,526.8,600.3,525.2,603.2,527.4z"/>
		<polygon class="st16" points="596.4,471.9 719.6,526.9 730.7,587.9 608.2,533.3 		"/>
		<path class="st17" d="M609.8,465.1l108.5,61c0,0,2.9,2.5,0.8,4.2c-2.3,1.8-6,4.5-8.2,6c-1,0.7-1.8,0.8-1.8,0.8s-0.7,0.1-3.5-1.5
			c-2.9-1.6-108.7-63.1-108.7-63.1s-1.6-0.7,0.8-3.6c1.1-1.3,6.4-3.8,6.4-3.8C602.9,465.8,606.6,463.4,609.8,465.1z"/>
		<path class="st16" d="M593.9,549.3l108.5,61c0,0,2.9,2.5,0.8,4.2c-2.3,1.8-6,4.5-8.2,6c-1,0.7-1.8,0.8-1.8,0.8s-0.7,0.1-3.5-1.5
			S581,556.7,581,556.7s-1.6-0.7,0.8-3.6c1.1-1.3,6.4-3.8,6.4-3.8C587,550,590.6,547.6,593.9,549.3z"/>
		<polygon class="st16" points="568.7,494.8 691.9,549.9 703,610.9 580.5,556.3 		"/>
		<path class="st17" d="M582.1,488.1l108.5,61c0,0,2.9,2.5,0.8,4.2c-2.3,1.8-6,4.5-8.2,6c-1,0.7-1.8,0.8-1.8,0.8s-0.7,0.1-3.5-1.5
			c-2.9-1.6-108.7-63.1-108.7-63.1s-1.6-0.7,0.8-3.6c1.1-1.3,6.4-3.8,6.4-3.8C575.2,488.8,578.9,486.4,582.1,488.1z"/>
		<circle class="st11" cx="716.3" cy="648.6" r="9.2"/>
		<path class="st10" d="M483.8,481.7l31.7,21.2c0,0,6.8,5.9-0.5,14.8c-3.1,3.8-15.2,16.8-15.2,16.8s-12.6,12.1-2.4,18.1
			c13.3,7.8,183.5,102.8,183.5,102.8s10.4,4.7,16.6,2s18.8-9.3,18.8-9.3"/>
		<g id="图层_9">
			<path class="st18" d="M787,808.1c0,0-25.8-3.8-30.2-10.5c-2-3,2.5-4.1,8-4.3c10.7,5.3,19.5,6.5,24.9,6.6
				C789.6,802.4,787,808.1,787,808.1z"/>
			<path class="st19" d="M764.7,793.3c6.7-0.3,15,0.5,15,0.5s6.8-24,7.3-24.8l12.9,4.2c0,0-10.9,24-10.4,26.2c0,0.1,0,0.3,0,0.5
				C784.2,799.8,775.5,798.6,764.7,793.3z"/>
			<path class="st18" d="M880.2,798.8c0,0-23.8,10.5-31.2,7.2c-3.3-1.5-0.1-4.7,4.4-7.9c11.9-1.2,20-4.9,24.6-7.7
				C879.4,792.5,880.2,798.8,880.2,798.8z"/>
			<path class="st19" d="M853.5,798.1c5.5-3.9,13-7.6,13-7.6s-7-23.9-7.1-24.9l13.2-3.4c0,0,3.6,26.1,5.1,27.7
				c0.1,0.1,0.2,0.2,0.3,0.4C873.5,793.2,865.4,796.9,853.5,798.1z"/>
			<path class="st6" d="M840.8,681l16.1,92.4h19.8c0,0-10.9-84.8-9.7-90s6.1-55.1,6.1-55.1l-29.5,18.4L840.8,681z"/>
			<path class="st20" d="M779.8,777.5c1.6-2.8,40-151,40-151l44-7.7l9.3,9.5c0,0-12.7,35.7-25.3,56.3s-47.7,96.5-47.7,96.5
				L779.8,777.5z"/>
			<path class="st21" d="M856.1,542.4c0,0-25.4-1.4-40.4-21.8c-14.9-20.4-23.6-40.2-23.6-40.2L781,503.2l5.9,28.9l31.7,34.1
				l33.1-4.8L856.1,542.4z"/>
			<polygon class="st22" points="813.7,543.3 748.8,543.3 728.1,524.8 728.1,437.1 813.7,437.1 			"/>
			<polygon class="st23" points="813.7,543.3 728.1,466 813.7,466 			"/>
			<rect x="735.4" y="423.7" class="st13" width="8.6" height="34"/>
			<rect x="748.1" y="423.7" class="st13" width="8.6" height="34"/>
			<rect x="760.8" y="423.7" class="st13" width="8.6" height="34"/>
			<rect x="773.5" y="423.7" class="st13" width="8.6" height="34"/>
			<rect x="786.2" y="423.7" class="st13" width="8.6" height="34"/>
			<rect x="798.9" y="423.7" class="st13" width="8.6" height="34"/>
			<path class="st13" d="M762,480.6c0,4.3-3.5,7.7-7.7,7.7c-4.3,0-7.7-3.5-7.7-7.7c0-4.3,3.5-7.7,7.7-7.7S762,476.4,762,480.6z"/>
			<path class="st13" d="M780.9,479.6c0,4.3-3.5,7.7-7.7,7.7c-4.3,0-7.7-3.5-7.7-7.7c0-4.3,3.5-7.7,7.7-7.7S780.9,475.3,780.9,479.6
				z"/>
			<path class="st13" d="M800.5,491.3c0,4.3-3.5,7.7-7.7,7.7c-4.3,0-7.7-3.5-7.7-7.7c0-4.3,3.5-7.7,7.7-7.7
				C797,483.6,800.5,487,800.5,491.3z"/>
			<rect x="751.9" y="480.6" class="st13" width="4.8" height="50.7"/>
			<rect x="770.8" y="480.6" class="st13" width="4.8" height="50.7"/>
			<rect x="790.4" y="487.8" class="st13" width="4.8" height="43.8"/>
			<path class="st24" d="M876.7,583.3l-3.6,45c-13.9,9.1-53.3-1.8-53.3-1.8l-0.3-10.1l-0.9-27.6c-45.4,1.4-51.3-10.1-51.3-10.1
				l-28.9-32.1l14.7-16.7c0,0,13.3,11.7,26.4,21.8c13.1,10.1,15.7,7.9,40.4,0c11.6-3.7,22.7-5.1,31.3-5.4v5.4h17.3L876.7,583.3z"/>
			<path class="st24" d="M868.5,551.6h-17.3v-5.4c9.6-0.4,15.9,0.3,15.9,0.3L868.5,551.6z"/>
			<path class="st19" d="M875.7,520.8l-2.8,30.9h-4.3l-1.3-5.1c0,0-6.3-0.8-15.9-0.3v-9.9c-1.2-5.3-31.9-13.3-0.9-41.7l16.5,9
				L875.7,520.8z"/>
			<path class="st6" d="M860.1,492.5c0,0,23.2-10.7,28.7,22.4c0,0,9.3,3.2,9.3,13.3c0,0,15.5,5.9,7.9,23.6c0,0,20.4,12.5,2.1,32.5
				c0,0-5.6,32.1-31.8,10.3C850,572.8,864,541.8,864,541.8s-5-8.5,1.2-12.9s1.8-12.7-6.1-12.7c-7.9,0,4.2-7.3-6.5-13.3
				C842,496.7,850.7,493.1,860.1,492.5z"/>
			<path class="st25" d="M838.3,585.3c0,0-11.5,18.3-18.9,31.1l-0.9-27.6C818.6,588.8,835.1,585.3,838.3,585.3z"/>
			<path class="st19" d="M749.2,535.6c-0.4-1.5-5.8-12.7-5.8-12.7s-1.2-16.4-4.2-16.4c-2.9,0-2.5,4.6-2.5,10.9s-10.6,1.3-10.6,1.3
				s-2.9,9.7,7.5,14.2s12.5,6.9,12.5,6.9L749.2,535.6z"/>
		</g>
	</g>
</g>
<g id="图层_3" class="st5">
	<polyline class="st26" points="358.8,425.1 388.2,442 420.5,460.6 	"/>
	<line class="st26" x1="391" y1="442.9" x2="404.5" y2="431.9"/>
	<line class="st26" x1="375" y1="415.4" x2="432.8" y2="448.1"/>
	<path class="st26" d="M410,475.4c2.8-5,92.3-66.5,92.3-66.5"/>
	<polyline class="st27" points="457.8,442.4 422.7,411.7 457.4,432.9 433.7,404.3 469.8,431.7 	"/>
	<path class="st27" d="M456.1,392.3c0,0-5.3,9.1-0.1,13.9s11.2,1.5,11.2,1.5s9.1-4,10.7,3.2c1.6,7.2-2.6,11.9-2.6,11.9"/>
</g>
</svg>
