<?xml version="1.0" encoding="utf-8"?>
<!-- Generator: Adobe Illustrator 22.0.0, SVG Export Plug-In . SVG Version: 6.00 Build 0)  -->
<svg version="1.1" xmlns="http://www.w3.org/2000/svg" xmlns:xlink="http://www.w3.org/1999/xlink" x="0px" y="0px"
	 viewBox="0 0 1133.9 1133.9" style="enable-background:new 0 0 1133.9 1133.9;" xml:space="preserve">
<style type="text/css">
	.st0{display:none;}
	.st1{fill:none;stroke:#F0F0F0;stroke-width:12;stroke-miterlimit:10;}
	.st2{fill:#FAEFC5;}
	.st3{fill:#E4E4EF;}
	.st4{fill:#FFC2D6;}
	.st5{fill:#F2F2F9;}
	.st6{fill:#5F5FFF;}
	.st7{fill:none;stroke:#5F5FFF;stroke-width:1.5;stroke-linecap:round;stroke-miterlimit:10;}
	.st8{fill:#F0CE72;}
	.st9{display:none;fill:#B7CCCE;}
	.st10{fill:#87B7CC;}
	.st11{fill:#E6F1F3;}
	.st12{fill:#B8C84B;}
	.st13{fill:#FFFFFF;}
	.st14{fill:#FFCC3E;}
	.st15{fill:#FFB5B4;}
	.st16{fill:#54585A;}
	.st17{fill:none;stroke:#434647;stroke-width:2;stroke-linecap:round;stroke-miterlimit:10;}
	.st18{fill:#2E2A33;}
	.st19{fill:#C9C3BC;}
	.st20{fill:#F28B8B;stroke:#DB7272;stroke-linecap:round;stroke-miterlimit:10;}
	.st21{fill:none;stroke:#FFFFFF;stroke-width:2;stroke-linecap:round;stroke-miterlimit:10;}
	.st22{fill:#F28B8B;}
	.st23{fill:#35012F;}
	.st24{fill:none;stroke:#F28B8B;stroke-width:2;stroke-linecap:round;stroke-miterlimit:10;}
	.st25{fill:#EDD5D1;}
	.st26{fill:#FFC933;}
	.st27{fill:#DBAD3A;}
	.st28{fill:#2E363A;}
	.st29{fill:#CEB0AE;}
	.st30{fill:#A7B59E;}
	.st31{fill:none;stroke:#1C2385;stroke-width:2;stroke-linecap:round;stroke-linejoin:round;stroke-miterlimit:10;}
	.st32{fill:none;stroke:#1C2385;stroke-miterlimit:10;}
	.st33{opacity:0.55;fill:#FAEFC5;enable-background:new    ;}
	.st34{fill:#C0DBE0;}
	.st35{fill:#DCE2E5;}
	.st36{fill:none;stroke:#C0DBE0;stroke-width:10;stroke-miterlimit:10;}
	.st37{fill:none;stroke:#DEEDCC;stroke-width:10;stroke-miterlimit:10;}
	.st38{fill:#E4E4EF;stroke:#E4E4EF;stroke-width:10;stroke-miterlimit:10;}
	.st39{fill:none;stroke:#FFFFFF;stroke-width:3;stroke-linecap:square;stroke-miterlimit:10;}
	.st40{fill:#F9B566;}
	.st41{fill:#8DAF77;}
	.st42{fill:#2B6148;}
	.st43{fill:#D9795A;}
	.st44{fill:#645646;}
	.st45{fill:#BF9E8D;}
	.st46{fill:#285E43;}
	.st47{fill:none;stroke:#977667;stroke-width:2;stroke-linecap:round;stroke-linejoin:round;stroke-miterlimit:10;}
	.st48{fill:#F1F2F7;}
	.st49{fill:#DCE5CF;}
	.st50{fill:#CBD17C;}
	.st51{fill:none;stroke:#FFFFFF;stroke-width:10;stroke-miterlimit:10;}
	.st52{fill:none;stroke:#FFFFFF;stroke-width:12;stroke-miterlimit:10;}
	.st53{fill:#B3B3B3;}
	.st54{fill:#A87D13;}
	.st55{opacity:0.3;fill:#F7F6ED;}
	.st56{opacity:0.3;fill:#F4EAD7;}
	.st57{fill:#C9A045;}
	.st58{fill:#141416;}
	.st59{fill:#3F3F44;}
	.st60{fill:#F9DEC5;}
	.st61{fill:#FFFFFE;}
	.st62{fill:#343438;}
	.st63{fill:#594C43;}
	.st64{fill:#E5DD48;}
	.st65{fill:#D1E2A3;}
	.st66{fill:#8DAF77;stroke:#748E6B;stroke-width:6;stroke-miterlimit:10;}
	.st67{fill:none;stroke:#F8F9F2;stroke-width:6;stroke-miterlimit:10;}
	.st68{fill:none;stroke:#FAEFC5;stroke-width:4;stroke-miterlimit:10;}
	.st69{fill:#E8EDC4;}
	.st70{fill:none;stroke:#F8F9F2;stroke-width:10;stroke-miterlimit:10;}
	.st71{fill:#E2DC6D;}
	.st72{fill:#F7F5BF;}
	.st73{fill:#D56154;}
	.st74{fill:#6CBC75;}
	.st75{fill:#B5D398;}
	.st76{fill:#ED9C8C;}
	.st77{fill:#DD7C73;}
</style>
<g id="参考线" class="st0">
</g>
<g id="_x31_">
	<path id="Path_1_" class="st48" d="M166.8,311.9c-15.8-81.3,71-153.8,187.5-123.7c123.5,32,114.2,104.5,169.8,128.1
		c55.6,23.6,264.3-57.5,371.3,14.3c60.5,40.5,62.9,74.8,25.4,121.5c-26.6,33.1-101.3,87.7-285.1,87.7
		c-131.6,0-169.4,43.7-267.4,99.8c-126.7,72.6-204,27.8-158.4-90.3C252.8,438.2,190.8,436,166.8,311.9z"/>
	<circle class="st26" cx="745" cy="300.7" r="144.4"/>
	<ellipse class="st30" cx="566.3" cy="715.6" rx="424.5" ry="215.6"/>
	<rect x="945.7" y="641.4" class="st30" width="45.1" height="63.2"/>
	<rect x="141.7" y="663.7" class="st30" width="45.1" height="63.2"/>
	<ellipse class="st11" cx="566.3" cy="659.1" rx="424.5" ry="215.6"/>
	<path class="st49" d="M991.9,656.3c-4.2,68.5-49.1,113.9-117.5,150.7c-40.2,21.6-87.8,39.1-141.7,50c-29.2,5.9-19.3,4.8-72.1,11.7
		c-22.1,2.9,68.8-53.9,62.2-131.5c-5-59.5-89.1-145.6-194.4-171.1c-171.9-41.6-318.1-1.3-327.6-13c-5.3-6.6,121.5-113.8,370.2-114
		C781,439,999.7,529.3,991.9,656.3z"/>
	<path class="st50" d="M577.4,579.6c-0.2,42.9-36.7,46.8-62.7,46.8c-26,0-62.6-7.1-60.7-50.7c3.1-70.8,34.8-118.7,60.7-118.7
		C540.7,457,577.6,511.9,577.4,579.6z"/>
	<path class="st50" d="M641.7,715c0,22.9-24.5,27-41.8,27c-17.3,0-40.5-4.8-40.5-25c0.1-47.3,23.2-79.2,40.5-79.2
		C617.3,637.8,641.7,669.8,641.7,715z"/>
	<path class="st51" d="M600.6,308.8h159.1c0,0,22.9-2.8,22.9,11.3c0,14.1-22.6,11.2-22.6,11.2h-93.2c0,0-20-2.6-20,9.9
		s19.3,11.5,19.3,11.5h187.8c0,0,16.7-1.1,16.7,9.2c0,10.2-17.2,8.3-17.2,8.3h-57.7c0,0-15.5-1.7-15.5,8.3c0,10,15,8.1,15,8.1h195.6
		"/>
	<path class="st51" d="M150.2,245h195.1c0,0,28.1-3.3,28.1,13.3c0,16.6-27.7,13.2-27.7,13.2H231.4c0,0-24.6-3-24.6,11.7
		c0,14.8,23.7,13.6,23.7,13.6h230.4"/>
	<path class="st12" d="M869.8,562.9c6.1,88-75.9,96.4-129.4,96.4s-138.6-18.3-129.7-107.7c14.5-145.8,75.4-229.4,129.7-230
		C793,321.1,860.2,423.4,869.8,562.9z"/>
	<path class="st51" d="M440.2,464.7h233.6c0,0,33.7-3.3,33.7,13.3c0,16.6-33.1,13.2-33.1,13.2H537.5c0,0-29.4-3-29.4,11.7
		c0,14.8,28.3,13.6,28.3,13.6h275.8"/>
</g>
<g id="_x32_-底座">
</g>
<g id="_x32_">
</g>
<g id="_x33_">
	<g id="图层_7">
	</g>
	<g id="图层_8">
	</g>
	<g id="图层_9">
	</g>
</g>
</svg>
