<svg xmlns="http://www.w3.org/2000/svg" viewBox="0 0 1106.86 872.19"><defs><style>.cls-1{fill:#f1f2f7;}.cls-2,.cls-3{fill:none;stroke-miterlimit:10;stroke-width:12px;}.cls-2{stroke:#fff;}.cls-3{stroke:#f0f0f0;}.cls-4{fill:#f0ce72;}.cls-5{fill:#faefc5;}.cls-6{fill:#fff;}.cls-7{fill:#b3b3b3;}.cls-8{fill:#a87d13;}.cls-9{fill:#f7f6ed;}.cls-10,.cls-9{opacity:0.3;isolation:isolate;}.cls-10{fill:#f4ead7;}.cls-11{fill:#c9a045;}.cls-12{fill:#ffc933;}.cls-13{fill:#141416;}.cls-14{fill:#3f3f44;}.cls-15{fill:#f9dec5;}.cls-16{fill:#fffffe;}.cls-17{fill:#343438;}.cls-18{fill:#594c43;}.cls-19{fill:#e5dd48;}.cls-20{fill:#d6ab61;}.cls-21{fill:#ba9045;}.cls-22{fill:#b58c24;}</style></defs><title>finder</title><g id="图层_4" data-name="图层 4"><path id="Path" class="cls-1" d="M163,180.41s-27.61,95.25,110.56,137.93,297.4,27.46,324.64,72.92,6.44,106.17-43.94,157.59S425.06,670.76,576.3,676.41s286.57-41.27,359.3-94.85,77.47-108.27-8.41-139.64-98.83-42.57-72.63-119,38.63-113.78-93.73-104.24S537,295,452.35,205.14,319,70.84,243.83,101.43,163,180.41,163,180.41Z" transform="translate(-14.07 -91.81)"/></g><g id="图层_1" data-name="图层 1"><path class="cls-2" d="M188.07,278.93H568.32s54.82-8.56,54.82,34.29-54,34-54,34H346.42s-47.86-7.8-47.86,30.14,46.07,35,46.07,35H793.71s40-3.24,40,27.9-41.18,25.32-41.18,25.32h-138s-37.14-5.23-37.14,25.33,35.91,24.74,35.91,24.74h467.61" transform="translate(-14.07 -91.81)"/><path class="cls-3" d="M14.07,437.48h347.4s50.1-7.1,50.1,28.3-49.3,28.1-49.3,28.1H158.77s-43.7-6.4-43.7,24.9,42.1,28.9,42.1,28.9h410.2" transform="translate(-14.07 -91.81)"/><g id="_1" data-name="1"><ellipse class="cls-4" cx="571.83" cy="661.99" rx="413.7" ry="210.2"/><rect class="cls-4" x="941.53" y="601.99" width="44" height="61.6"/><rect class="cls-4" x="158.03" y="611.39" width="44" height="61.6"/><ellipse class="cls-5" cx="582.85" cy="603.06" rx="413.7" ry="210.2"/></g><g id="_2-底座" data-name="2-底座"><path class="cls-2" d="M160.7,706.7h204s29.4-3.9,29.4,15.4-28.9,15.4-28.9,15.4H245.7S220,734,220,751.1s24.7,15.8,24.7,15.8H485.5s21.5-1.5,21.5,12.6-22,11.4-22,11.4H410.9S391,788.6,391,802.3s19.3,11.1,19.3,11.1H661.1" transform="translate(-14.07 -91.81)"/><path class="cls-2" d="M197.7,596.3H484.5s41.3-3.4,41.3,13.6-40.7,13.5-40.7,13.5h-168S281,620.3,281,635.3s34.8,13.9,34.8,13.9H654.5" transform="translate(-14.07 -91.81)"/><path class="cls-2" d="M566.1,650.7H845.6s40.3-3.4,40.3,13.5-38.6,13.4-38.6,13.4H683.5s-36.2-3.1-36.2,11.9,33.9,13.8,33.9,13.8h330" transform="translate(-14.07 -91.81)"/></g><g id="_2" data-name="2"><path class="cls-6" d="M412.1,443.8a5.42,5.42,0,0,0,1-1.8,127.85,127.85,0,0,1-25.6-14.1,10.61,10.61,0,0,0-2,1.7l-49.1,61.8c-2.3,2.9-1.7,6.7,1.5,8.4l15.1,8.1a8.37,8.37,0,0,0,10-2.2Z" transform="translate(-14.07 -91.81)"/><path class="cls-7" d="M414.6,444.4a7.81,7.81,0,0,0,1.1-2c-4-1.7-8-3.5-11.8-5.5l-54,68.6,5.8,3.2a8.07,8.07,0,0,0,10-2.2Z" transform="translate(-14.07 -91.81)"/><path class="cls-8" d="M564.7,220.9c-64.5-35.1-154.4-15.8-200.8,43.2s-31.8,135.3,32.6,170.4,154.4,15.8,200.8-43.2S629.2,256.1,564.7,220.9ZM412.6,414.1c-52.1-28.4-63.9-90.1-26.4-137.8s110.2-63.3,162.4-35,63.9,90.1,26.4,137.8S464.7,442.5,412.6,414.1Z" transform="translate(-14.07 -91.81)"/><path class="cls-9" d="M568.1,370.7c-36.5,46.4-107.2,61.6-157.9,34s-62.2-87.6-25.7-134,107.2-61.6,157.9-34S604.6,324.3,568.1,370.7Z" transform="translate(-14.07 -91.81)"/><path class="cls-10" d="M437.1,317.2c27.9-35.4,81.2-49.2,122.3-33.4-6.4-11.7-16.4-21.9-29.9-29.3-40.9-22.3-98-10-127.5,27.5s-20.2,85.9,20.7,108.2a8.26,8.26,0,0,1,1.3.7C415.3,367.5,419.1,340.1,437.1,317.2Z" transform="translate(-14.07 -91.81)"/><path class="cls-6" d="M550.1,226.9c-56.6-30.8-135.6-13.8-176.4,38s-28,118.8,28.7,149.6,135.6,13.8,176.4-38S606.8,257.7,550.1,226.9ZM416.6,396.5c-45.8-24.9-56.2-79.1-23.2-121s96.8-55.6,142.6-30.7,56.2,79.1,23.2,121S462.3,421.5,416.6,396.5Z" transform="translate(-14.07 -91.81)"/><path class="cls-4" d="M285.3,634.7c-4.9,6.3-14.2,8.5-20.7,5l-31-16.7c-6.5-3.5-7.8-11.5-2.9-17.8L333.8,473c4.9-6.3,14.2-8.5,20.7-5l31,16.7c6.5,3.5,7.8,11.5,2.9,17.8Z" transform="translate(-14.07 -91.81)"/><path class="cls-11" d="M386.9,486.7l-6.1-3.1L262.3,640.2l6.1,3.1c5.4,2.8,13.6-.1,18.4-6.5L387.9,503.1C392.7,496.8,392.2,489.4,386.9,486.7Z" transform="translate(-14.07 -91.81)"/><path class="cls-12" d="M560.4,213.9c-64.5-35.1-154.4-15.8-200.8,43.2s-31.8,135.3,32.6,170.4S546.6,443.3,593,384.3,624.8,249,560.4,213.9ZM408.3,407.1c-52.1-28.4-63.9-90.1-26.4-137.8s110.2-63.4,162.4-35,63.9,90.1,26.4,137.8S460.4,435.5,408.3,407.1Z" transform="translate(-14.07 -91.81)"/><path class="cls-13" d="M292.4,762.3l-1.9,6.2s17.7-.1,17.7,7.8-13.8,5.7-27.8,5.7-7.9-13-6.6-20.9S292.4,762.3,292.4,762.3Z" transform="translate(-14.07 -91.81)"/><path class="cls-13" d="M329.1,773.9v4.9s18.5,0,18.5,7.9-14.6,6.2-28.6,6.2-8.6-13.6-7.3-21.5S329.1,773.9,329.1,773.9Z" transform="translate(-14.07 -91.81)"/><path class="cls-14" d="M335.8,607.1s3.2,161.7-1.3,170.2l-18.5.6-10.2-1.8-1.9-79s-1.3,49.2-8.9,69.3c0,0-20.4,0-24.2-6.1,0,0,10.2-60.2,8.3-80.8s-5.7-68.1-5.7-68.1Z" transform="translate(-14.07 -91.81)"/><path class="cls-15" d="M307.1,429.7s8.1,8.6,7.9,15c0,0,0,4.9,1.4,6.3s2.4,3.7.9,4.8-.3,5.5-.3,5.5.1,6.4-6.2,7.1-8,7.6-6.5,10.2-20.9,5-20.9,5,2.5-8.2-.6-13.1-19.8-23.2-9.5-33.8S294.5,420.7,307.1,429.7Z" transform="translate(-14.07 -91.81)"/><polygon class="cls-16" points="290.33 385.89 268.43 378.59 264.23 389.79 292.23 389.79 290.33 385.89"/><path class="cls-6" d="M278.1,481.1s17.2,1.2,26.1-.6S356,523.1,356,523.1l15.8-29,11.5,6.4-15.9,42.4s-1.9,7.3-8,4.6-26.8-15.2-29.4-13.1,7.6,76.3,7.6,76.3-1,4.3-17.8,5.5-43.3,4.3-45.8-4.6-3.2-43.5-6-56.8C265.1,541.3,256.2,504.5,278.1,481.1Z" transform="translate(-14.07 -91.81)"/><path class="cls-6" d="M278.1,481.1s17.2,1.2,26.1-.6c2.8-.6,9.1,3.5,16.3,9.4a162.92,162.92,0,0,0,9.2,45.2c-1.4,8.1,7.9,75.5,7.9,75.5s-1,4.3-17.8,5.5-43.3,4.3-45.8-4.6-3.2-43.5-6-56.8S256.2,504.5,278.1,481.1Z" transform="translate(-14.07 -91.81)"/><polygon class="cls-17" points="287.33 544.19 291.23 633.89 281.03 674.59 272.13 674.59 282.93 614.39 287.33 544.19"/><path class="cls-18" d="M280.6,423.8c19.6-7.5,26.1-1.7,33.2,7.7h-.2c.9,1.2.1,1.7.8,3.3,0,0,1.9,3.8-2,4.8s-8.5.3-9.9,4.7a25.3,25.3,0,0,0-.5,11.4c.4,1.2-2-5.8-6.1-4.7s-5.2,4.4-3,7.1,6.4,5.3,7,6.4-5.9,9.6-9.8,10.5-7.7,1.6-9.8-5.3-7.5-12.9-10.5-14.6S261,431.4,280.6,423.8Z" transform="translate(-14.07 -91.81)"/><path class="cls-15" d="M368.2,480.4s-.5-1.2,1.4-1.5,1.8,3.6,3.7,4,2.3-.3,2.3-2.9c-.3-16.2,3.9-14.4,3.9-14.4s2.1-1.5,6.5,13.2c2,6.5-2.2,15.9-2.2,15.9l-3.2,10.6-9.8-5.2,3-8.7A25.44,25.44,0,0,1,368.2,480.4Z" transform="translate(-14.07 -91.81)"/><polygon class="cls-4" points="800.13 387.99 768.93 366.39 733.43 379.89 744.33 343.49 720.53 313.89 758.53 312.99 779.33 281.29 791.83 317.09 828.53 327.09 798.33 350.09 800.13 387.99"/><polygon class="cls-19" points="721.43 294.49 692.33 285.19 669.63 305.39 667.93 273.09 642.33 255.39 670.33 244.79 677.33 213.59 696.23 239.29 726.13 237.79 709.83 264.29 721.43 294.49"/></g></g><g id="图层_3" data-name="图层 3"><path class="cls-20" d="M693.5,598.24c-24,4.84-126.13-10.75-195.17,43.12-64.17,50.08-18.55,110.8,42.17,115.77,39.61,3.24,84,1,129.17-43.71C693.4,689,702.15,660.06,738.25,626c17.49-17.48,96.08-64,174.75-89.3s132.06-30.13,132.06-30.13,23.7-2.95,22.85-13.72c-1-12-12.78-16.66-31.55-16.66S971.3,489,908.5,509.52C836.35,533.07,709.42,595,693.5,598.24Z" transform="translate(-14.07 -91.81)"/><path class="cls-21" d="M608.56,622.91c-45.95,2.53-97.06,21.56-112.79,52.56-13.18,26,8.7,38.71,26.37,42.24,25.37,5.07,48.9,4.66,82.12-7C618.82,705.61,651.52,684.3,659,667,672.5,636,656.4,620.27,608.56,622.91Z" transform="translate(-14.07 -91.81)"/><ellipse class="cls-22" cx="1039.41" cy="490.82" rx="14.12" ry="5.78" transform="translate(-45.82 -17.99) rotate(-4.01)"/></g></svg>